# xmcd
#
# Track frame offsets: 
#        150
#        11985
#        23812
#        36987
#        50232
#        64307
#        77760
#        91835
#        103267
#        113047
#
# Disc length: 1699 seconds
#
# Revision: 2
# Processed by: cddbd v1.5.2PL0 Copyright (c) Steve Scherf et al.
# Submitted via: ExactAudioCopyFreeDBPlugin 1.0
#
DISCID=8606a10a
DTITLE=Johnny Paycheck - Pure Country
DYEAR=2001
DGENRE=Country
TTITLE0=Take This Job And Shove It
TTITLE1=For A Minute There
TTITLE2=Slide Off Of Your Satin Sheets
TTITLE3=She's All I Got
TTITLE4=Friend, Lover, Wife
TTITLE5=Someone To Give My Love To
TTITLE6=I'm The Only Hell (Mama Ever Raised)
TTITLE7=Song And Dance Man
TTITLE8=Mr. Lovemaker
TTITLE9=You Can Have Her
EXTD=
EXTT0=
EXTT1=
EXTT2=
EXTT3=
EXTT4=
EXTT5=
EXTT6=
EXTT7=
EXTT8=
EXTT9=
PLAYORDER=
